<svg xmlns="http://www.w3.org/2000/svg" viewBox="0 0 512 512" width="100%" height="100%">
  <rect width="512" height="512" rx="100" fill="#000000"/>
  <g fill="#ffffff">
    <!-- Stylized G with slash -->
    <path d="M 230 180 A 90 90 0 1 0 240 330 L 240 270 L 190 270 L 190 240 L 270 240 L 270 340 A 120 120 0 1 1 250 140 Z" fill-rule="evenodd"/>
    <!-- Slash cut -->
    <polygon points="120,400 270,160 285,170 135,410" fill="#000000"/>
    <polygon points="122,398 268,162 278,168 132,404" fill="#ffffff"/>
    
    <!-- Stylized N -->
    <path d="M 255 180 L 285 180 L 335 300 L 335 180 L 365 180 L 365 340 L 335 340 L 285 220 L 285 340 L 255 340 Z"/>
    
    <!-- Top T bar -->
    <rect x="315" y="145" width="80" height="24" rx="4" fill="#ffffff"/>
  </g>
  <!-- Text subtitle -->
  <text x="256" y="405" font-family="'Inter', 'Arial Black', sans-serif" font-size="34" font-weight="900" fill="#ffffff" text-anchor="middle" letter-spacing="4">GONEXORA TECHS</text>
  <line x1="140" y1="428" x2="372" y2="428" stroke="#ffffff" stroke-width="2"/>
  <text x="256" y="445" font-family="'Inter', sans-serif" font-size="14" font-weight="700" fill="#ffffff" text-anchor="middle" letter-spacing="3">BUILDING TOMORROW, TODAY</text>
  <line x1="140" y1="456" x2="372" y2="456" stroke="#ffffff" stroke-width="2"/>
</svg>